<svg xmlns="http://www.w3.org/2000/svg" width="66" height="66" viewBox="0 0 66 66"><g transform="translate(53 243)"><rect width="66" height="66" transform="translate(-53 -243)" fill="none"/><g transform="translate(-21.031 -241) rotate(30)"><path d="M142.307,153.771c-.09,1.823-.118,3.652-.287,5.467-.157,1.683-.429,3.357-.717,5.024-.2,1.168-.505,2.318-.781,3.473a.7.7,0,0,1-.736.59c-1.175,0-2.35,0-3.524,0a.848.848,0,0,1-.8-.546A5.891,5.891,0,0,0,132.957,165a3.5,3.5,0,0,0-4.316.456,10.791,10.791,0,0,0-1.8,2.211c-.283.386-.525.7-1.079.674-.961-.043-1.925-.011-2.887-.013-.688,0-.951-.2-1.08-.862-.314-1.61-.595-3.226-.922-4.834a51.359,51.359,0,0,1-.648-12.175,32.52,32.52,0,0,1,.573-4.1,27.676,27.676,0,0,1,.593-2.817c.265-.965.623-1.905.958-2.851a8.9,8.9,0,0,1,.477-1.108c.141-.273.346-.26.609-.09a13.428,13.428,0,0,0,4.7,1.834,14.18,14.18,0,0,0,4.426.244,13.807,13.807,0,0,0,6.31-2.142c.369-.249.708-.131.886.32a38.142,38.142,0,0,1,1.678,5.384A39.9,39.9,0,0,1,142.307,153.771Zm-4.576-3.069a7.107,7.107,0,0,0-1.115-3.352,6.43,6.43,0,0,0-4.628-2.852,6.509,6.509,0,0,0-4.751,1.193,6.288,6.288,0,0,0-2.278,2.919,5.669,5.669,0,0,0,.285,4.853,6.3,6.3,0,0,0,4.193,3.38,6.418,6.418,0,0,0,4.952-.651A6.591,6.591,0,0,0,137.731,150.7Z" transform="translate(-114.224 -129.14)" fill="#5a45aa"/><path d="M172.692,33.566a13.187,13.187,0,0,1-6.579-1.98.568.568,0,0,1-.2-.871,27.823,27.823,0,0,1,4.993-6.287c.272-.257.573-.483.854-.729a1.62,1.62,0,0,1,2.139.116,27.471,27.471,0,0,1,4.432,4.8c.449.656.849,1.349,1.324,1.985.307.412.153.672-.174.892a11.889,11.889,0,0,1-1.382.823A14.315,14.315,0,0,1,172.692,33.566Z" transform="translate(-155.871 -23.347)" fill="#5a45aa"/><path d="M213.066,459.822c0-.6.02-1.209,0-1.812a5.056,5.056,0,0,1,1.3-3.429,1.7,1.7,0,0,1,2.786-.07A5.016,5.016,0,0,1,218.568,458c-.007,1.418.025,2.844-.112,4.252a29.152,29.152,0,0,1-1.1,6.423c-.149.45-.273.973-.824,1.209a1.542,1.542,0,0,1-2.224-1.045c-.336-1.456-.659-2.92-.88-4.4-.228-1.527-.326-3.073-.48-4.611Z" transform="translate(-198.897 -416.106)" fill="#5a45aa"/><path d="M52.54,401.951c.1-1.411.117-2.834.316-4.231a7.89,7.89,0,0,1,1.753-4.019,6.31,6.31,0,0,1,1.182-1.085c.45-.316.692-.153.8.379.353,1.77.707,3.539,1.1,5.3.234,1.058.533,2.1.8,3.154a.727.727,0,0,1-.265.829,12.318,12.318,0,0,0-2.832,3.448,1.476,1.476,0,0,1-2.6-.034,1.387,1.387,0,0,1-.148-.65c-.015-1.029-.007-2.057-.007-3.085Z" transform="translate(-52.54 -360.12)" fill="#5a45aa"/><path d="M377.35,403.809c0,1.219-.025,2.247.009,3.274a1.309,1.309,0,0,1-.859,1.3,1.287,1.287,0,0,1-1.47-.2c-.426-.421-.778-.915-1.175-1.367-.678-.769-1.35-1.544-2.057-2.285a.923.923,0,0,1-.223-1.018c.255-.871.472-1.752.7-2.632.192-.755.4-1.508.55-2.271.223-1.1.4-2.209.609-3.311.037-.194.1-.511.213-.537a.938.938,0,0,1,.668.138,5.562,5.562,0,0,1,1.919,2.356c.284.614.52,1.253.752,1.89C377.553,400.729,377.292,402.377,377.35,403.809Z" transform="translate(-343.568 -362.211)" fill="#5a45aa"/><path d="M303.784,500.667q0-1.294,0-2.588a.426.426,0,0,1,.479-.484c.75,0,1.5,0,2.251,0,.335,0,.491.182.428.5-.068.348-.174.689-.275,1.029-.192.652-.356,1.315-.6,1.948-.268.707-.387,1.53-1.29,1.813-.78.245-1.078.06-1.082-.748,0-.489,0-.979,0-1.467Z" transform="translate(-281.694 -456.044)" fill="#5a45aa"/><path d="M154.644,499.566c.039.9.095,1.79.114,2.686.012.593-.213.752-.8.63a1.461,1.461,0,0,1-1.088-.9c-.335-.827-.594-1.685-.873-2.533a12.008,12.008,0,0,1-.378-1.306c-.088-.426.114-.635.569-.62.587.019,1.175,0,1.763.008.527.01.69.181.715.714,0,.032,0,.066,0,.1v1.224Z" transform="translate(-142.92 -455.981)" fill="#5a45aa"/><path d="M201.943,224.32c2.11.077,3.472.908,4.142,2.59a3.971,3.971,0,0,1-2.406,5.156,4.32,4.32,0,0,1-3.056-.089,3.707,3.707,0,0,1-2.029-1.809,5.167,5.167,0,0,1-.495-1.766,3.991,3.991,0,0,1,2.522-3.724C201.139,224.51,201.674,224.392,201.943,224.32Z" transform="translate(-185.338 -206.714)" fill="#5a45aa"/></g></g></svg>